<?xml version="1.0" encoding="UTF-8"?>
<svg xmlns="http://www.w3.org/2000/svg" xmlns:xlink="http://www.w3.org/1999/xlink" width="657.874pt" height="643.367pt" viewBox="0 0 657.874 643.367" version="1.1">
<g id="surface1">
<path style=" stroke:none;fill-rule:nonzero;fill:rgb(94.351196%,27.764893%,11.294556%);fill-opacity:1;" d="M 265.386719 303.722656 C 201.1875 300.265625 111.710938 291.460938 47.5 279.566406 L 47.5 284.699219 C 113.5625 299.792969 199.328125 310.117188 265.378906 314.328125 Z M 265.386719 303.722656 "/>
<path style=" stroke:none;fill-rule:nonzero;fill:rgb(94.351196%,27.764893%,11.294556%);fill-opacity:1;" d="M 392.488281 303.722656 L 392.5 314.328125 C 458.550781 310.117188 544.316406 299.792969 610.371094 284.699219 L 610.371094 279.566406 C 546.167969 291.460938 456.691406 300.265625 392.488281 303.722656 "/>
<path style=" stroke:none;fill-rule:nonzero;fill:rgb(94.351196%,27.764893%,11.294556%);fill-opacity:1;" d="M 497.242188 331.039063 C 498.023438 328.566406 498.816406 326.097656 499.667969 323.609375 C 491.269531 324.539063 482.9375 325.449219 474.613281 326.359375 C 475.28125 328.566406 475.964844 330.765625 476.636719 332.988281 L 476.636719 409.597656 C 481.3125 414.800781 485.976563 420.125 490.652344 425.519531 C 501.234375 426.609375 511.867188 427.859375 522.503906 429.179688 C 527.234375 424.453125 531.964844 419.613281 536.703125 414.640625 C 536.636719 399.976563 536.636719 385.316406 536.636719 370.695313 L 536.636719 326.726563 C 537.253906 324.054688 537.871094 321.363281 538.496094 318.652344 C 530.050781 319.71875 521.664063 320.789063 513.273438 321.835938 C 513.957031 324.285156 514.621094 326.742188 515.359375 329.179688 C 515.410156 341.402344 515.523438 353.636719 515.585938 365.867188 C 515.644531 378.117188 515.753906 390.359375 515.871094 402.59375 C 514.289063 404.5 512.765625 406.414063 511.25 408.300781 C 507.933594 408.039063 504.609375 407.777344 501.296875 407.535156 C 499.933594 405.523438 498.589844 403.511719 497.242188 401.507813 L 497.242188 331.039063 "/>
<path style=" stroke:none;fill-rule:nonzero;fill:rgb(94.351196%,27.764893%,11.294556%);fill-opacity:1;" d="M 267.914063 417.699219 C 274.28125 417.492188 280.703125 417.296875 287.175781 417.109375 C 295.5625 416.859375 303.941406 416.808594 312.394531 416.761719 C 317.058594 413.0625 321.738281 409.375 326.460938 405.695313 C 326.460938 399.152344 326.410156 392.621094 326.410156 386.09375 L 326.410156 379.480469 C 323.644531 377.527344 320.890625 375.558594 318.136719 373.589844 C 320.890625 371.570313 323.644531 369.558594 326.410156 367.542969 C 326.410156 363.765625 326.347656 359.964844 326.347656 356.179688 L 326.347656 344.816406 C 321.621094 341.03125 316.949219 337.242188 312.273438 333.433594 C 303.832031 333.378906 295.4375 333.210938 287.066406 332.960938 C 280.578125 332.746094 274.167969 332.53125 267.746094 332.332031 C 266.675781 332.304688 265.613281 332.257813 264.601563 332.222656 C 265.054688 334.214844 265.558594 336.183594 266.0625 338.152344 C 266.003906 350.417969 266.03125 362.691406 266.0625 374.953125 C 266.097656 387.214844 266.125 399.480469 266.171875 411.742188 C 265.671875 413.757813 265.226563 415.769531 264.765625 417.78125 C 265.78125 417.757813 266.855469 417.71875 267.914063 417.699219 M 301.242188 349.398438 C 302.816406 350.757813 304.398438 352.121094 305.964844 353.476563 L 305.964844 362.453125 C 299.726563 365.664063 293.414063 368.796875 287.109375 372.003906 L 287.109375 375.34375 C 287.109375 380.085938 287.113281 384.832031 287.121094 389.578125 C 292.074219 386.933594 297.023438 384.367188 302.03125 381.804688 C 303.320313 383.253906 304.683594 384.683594 306.027344 386.121094 C 306.027344 389.851563 306.09375 393.570313 306.09375 397.296875 C 304.507813 398.660156 302.929688 400.003906 301.355469 401.378906 C 296.625 401.378906 291.894531 401.449219 287.175781 401.523438 C 287.144531 397.546875 287.132813 393.5625 287.121094 389.578125 C 287.117188 389.578125 287.113281 389.582031 287.109375 389.585938 L 287.109375 375.34375 C 287.109375 366.617188 287.066406 357.859375 287.066406 349.121094 C 291.785156 349.21875 296.515625 349.3125 301.242188 349.398438 "/>
<path style=" stroke:none;fill-rule:nonzero;fill:rgb(94.351196%,27.764893%,11.294556%);fill-opacity:1;" d="M 465.273438 410.003906 C 465.273438 398.554688 465.214844 387.097656 465.214844 375.632813 L 465.214844 341.246094 C 460.308594 336.804688 455.476563 332.457031 450.632813 328.15625 C 440.15625 329.070313 429.699219 329.757813 419.277344 330.421875 C 414.492188 335.242188 409.765625 339.976563 405.035156 344.65625 C 405.035156 354.804688 405.003906 364.957031 405.035156 375.089844 C 405.066406 385.25 405.089844 395.40625 405.089844 405.550781 C 409.59375 410.167969 414.105469 414.84375 418.667969 419.578125 C 429.125 420.199219 439.601563 420.917969 450.121094 421.773438 C 453.167969 424.5625 456.203125 427.359375 459.296875 430.210938 C 463.695313 426.460938 468.078125 422.65625 472.476563 418.800781 C 470.058594 415.828125 467.628906 412.917969 465.273438 410.003906 M 439.257813 403.277344 C 436.453125 403.121094 433.621094 403.007813 430.867188 402.921875 C 429.242188 401.394531 427.667969 399.890625 426.089844 398.371094 C 426.039063 390.519531 426.039063 382.644531 426.039063 374.78125 C 426.039063 366.914063 426.039063 359.039063 426.089844 351.183594 C 427.5625 349.730469 429.015625 348.28125 430.539063 346.796875 C 433.75 346.691406 436.949219 346.5625 440.15625 346.417969 C 441.628906 347.789063 443.148438 349.136719 444.667969 350.488281 L 444.667969 374.753906 C 444.667969 382.851563 444.667969 390.949219 444.714844 399.035156 C 442.863281 400.464844 441.058594 401.875 439.257813 403.277344 "/>
<path style=" stroke:none;fill-rule:nonzero;fill:rgb(94.351196%,27.764893%,11.294556%);fill-opacity:1;" d="M 379.597656 348.230469 C 383.761719 349.0625 387.933594 349.882813 392.152344 350.738281 C 390.792969 344.578125 389.453125 338.417969 388.09375 332.289063 C 370.03125 333.007813 351.957031 333.289063 333.886719 333.566406 C 334.675781 335.488281 335.464844 337.433594 336.320313 339.355469 C 336.320313 351.25 336.289063 363.167969 336.320313 375.058594 C 336.332031 386.96875 336.367188 398.863281 336.421875 410.769531 C 335.527344 412.742188 334.625 414.710938 333.773438 416.679688 C 353.757813 416.945313 373.800781 417.386719 393.789063 418.066406 C 394.855469 412.121094 395.917969 406.183594 397.046875 400.214844 C 394.738281 400.742188 392.433594 401.257813 390.132813 401.789063 C 379.199219 401.539063 368.285156 401.269531 357.417969 401.109375 L 357.417969 381.332031 C 363.5 381.339844 369.574219 381.40625 375.664063 381.4375 C 378.472656 382.160156 381.285156 382.875 384.105469 383.613281 C 384.042969 376.984375 384.042969 370.34375 384.042969 363.710938 C 381.453125 364.402344 378.863281 365.089844 376.28125 365.777344 C 369.972656 365.839844 363.667969 365.828125 357.367188 365.859375 L 357.367188 348.546875 C 364.742188 348.492188 372.171875 348.40625 379.597656 348.230469 "/>
<path style=" stroke:none;fill-rule:nonzero;fill:rgb(94.351196%,27.764893%,11.294556%);fill-opacity:1;" d="M 570.695313 412.628906 L 570.695313 383.792969 C 576.769531 383.921875 582.851563 384.039063 588.984375 384.167969 C 591.789063 385.3125 594.609375 386.457031 597.425781 387.601563 L 597.425781 357.058594 C 594.847656 358.242188 592.257813 359.375 589.660156 360.503906 C 583.304688 360.761719 576.992188 361.046875 570.695313 361.277344 L 570.695313 336.066406 C 578.121094 335.347656 585.554688 334.492188 592.984375 333.65625 C 597.140625 334.621094 601.316406 335.613281 605.484375 336.625 C 604.132813 327.140625 602.773438 317.730469 601.429688 308.386719 C 583.355469 311.597656 565.28125 314.570313 547.21875 317.386719 C 548 319.949219 548.851563 322.507813 549.6875 325.101563 L 549.6875 424.453125 C 548.792969 427.109375 547.890625 429.765625 547.046875 432.367188 C 567.027344 435.222656 587.078125 438.3125 607.117188 441.53125 C 608.183594 432.367188 609.25 423.167969 610.371094 413.90625 C 608.007813 414.582031 605.707031 415.238281 603.394531 415.898438 C 592.472656 414.78125 581.554688 413.679688 570.695313 412.628906 "/>
<path style=" stroke:none;fill-rule:nonzero;fill:rgb(94.351196%,27.764893%,11.294556%);fill-opacity:1;" d="M 48.960938 374.015625 C 49.023438 393.246094 49.074219 412.464844 49.136719 431.679688 C 48.625 434.90625 48.171875 438.121094 47.785156 441.316406 C 48.738281 441.164063 49.753906 440.992188 50.824219 440.8125 C 57.238281 439.738281 63.710938 438.640625 70.179688 437.539063 C 78.574219 436.125 86.953125 434.78125 95.410156 433.566406 C 100.074219 427.738281 104.753906 422.015625 109.417969 416.433594 C 109.417969 407.449219 109.367188 398.445313 109.367188 389.457031 L 109.367188 380.398438 C 106.554688 377.703125 103.785156 374.953125 101.03125 372.191406 C 103.785156 369.398438 106.554688 366.648438 109.308594 363.945313 C 109.308594 358.757813 109.246094 353.535156 109.246094 348.347656 L 109.246094 332.714844 C 104.527344 326.953125 99.847656 321.085938 95.175781 315.066406 C 86.738281 313.769531 78.351563 312.351563 69.957031 310.832031 C 63.488281 309.6875 57.011719 308.527344 50.605469 307.378906 C 49.527344 307.183594 48.515625 307.011719 47.503906 306.820313 C 47.949219 309.992188 48.457031 313.171875 48.960938 316.320313 C 48.910156 335.550781 48.910156 354.804688 48.960938 374.015625 M 84.144531 336.753906 C 85.722656 338.890625 87.296875 340.992188 88.875 343.070313 L 88.875 356.035156 C 82.625 360.417969 76.324219 364.925781 70.019531 369.609375 C 70.019531 375.089844 70.035156 380.570313 70.050781 386.042969 C 70.058594 389.390625 70.070313 392.734375 70.082031 396.078125 C 75.03125 391.957031 79.980469 387.9375 84.996094 384.039063 C 86.285156 386.121094 87.636719 388.140625 88.984375 390.167969 C 88.984375 395.566406 89.042969 400.953125 89.042969 406.316406 C 87.46875 408.410156 85.886719 410.507813 84.3125 412.605469 C 79.585938 413.082031 74.859375 413.578125 70.132813 414.078125 C 70.105469 408.082031 70.097656 402.078125 70.082031 396.078125 C 70.078125 396.078125 70.074219 396.082031 70.070313 396.085938 C 70.070313 392.738281 70.0625 389.390625 70.050781 386.042969 C 70.042969 382.238281 70.023438 378.4375 70.019531 374.632813 C 69.988281 361.5 69.957031 348.328125 69.957031 335.1875 C 74.691406 335.710938 79.425781 336.238281 84.144531 336.753906 "/>
<path style=" stroke:none;fill-rule:nonzero;fill:rgb(94.351196%,27.764893%,11.294556%);fill-opacity:1;" d="M 182.585938 423.082031 C 181.40625 420.871094 180.222656 418.65625 179.097656 416.414063 C 176.394531 402.628906 173.679688 388.65625 171 374.546875 C 168.285156 360.28125 165.648438 345.84375 163.003906 331.253906 C 163.792969 328.992188 164.585938 326.726563 165.425781 324.476563 C 153.203125 323.066406 140.996094 321.417969 128.839844 319.789063 C 129.570313 322.480469 130.296875 325.171875 131.085938 327.847656 C 128.507813 343.152344 125.890625 358.660156 123.378906 374.328125 C 120.828125 390.199219 118.3125 406.230469 115.78125 422.523438 C 114.546875 425.375 113.304688 428.265625 112.058594 431.132813 C 121.304688 429.859375 130.527344 428.746094 139.753906 427.609375 C 139.089844 425.167969 138.464844 422.6875 137.84375 420.199219 C 138.410156 415.230469 139.03125 410.277344 139.707031 405.316406 C 144.824219 404.96875 149.949219 404.613281 155.0625 404.273438 C 155.738281 408.960938 156.417969 413.625 157.144531 418.269531 C 156.535156 420.769531 155.914063 423.28125 155.347656 425.769531 C 164.351563 424.871094 173.480469 423.960938 182.585938 423.082031 M 142.914063 384.921875 C 143.636719 379.519531 144.316406 374.101563 145.046875 368.726563 C 145.773438 363.367188 146.457031 358.035156 147.246094 352.710938 C 147.976563 358.113281 148.765625 363.457031 149.492188 368.8125 C 150.21875 374.132813 151.003906 379.453125 151.792969 384.75 C 148.828125 384.8125 145.839844 384.863281 142.914063 384.921875 "/>
<path style=" stroke:none;fill-rule:nonzero;fill:rgb(94.351196%,27.764893%,11.294556%);fill-opacity:1;" d="M 258.914063 417.976563 C 256.949219 416.023438 254.976563 414.035156 253.0625 412.058594 C 250.699219 407.855469 248.328125 403.65625 246.082031 399.40625 C 243.832031 395.15625 241.46875 390.863281 239.21875 386.546875 C 242.875 382.90625 246.539063 379.324219 250.191406 375.746094 C 250.191406 370.367188 250.160156 364.992188 250.132813 359.578125 C 250.117188 354.195313 250.132813 348.796875 250.132813 343.398438 C 245.464844 339.183594 240.84375 334.9375 236.230469 330.609375 C 220.46875 329.550781 204.707031 328.277344 189.007813 326.933594 C 189.625 329.226563 190.238281 331.507813 190.859375 333.765625 C 190.859375 347.386719 190.859375 361.015625 190.921875 374.617188 C 190.980469 388.230469 190.980469 401.847656 191.03125 415.445313 C 190.132813 417.78125 189.226563 420.136719 188.335938 422.503906 C 197.226563 421.8125 206.117188 421.152344 215.074219 420.476563 C 214 418.367188 212.984375 416.257813 211.96875 414.128906 C 211.863281 409.851563 211.800781 405.566406 211.800781 401.300781 C 211.800781 397.027344 211.746094 392.730469 211.746094 388.445313 C 214.171875 388.402344 216.589844 388.34375 219.003906 388.304688 C 220.917969 392.476563 222.84375 396.640625 224.75 400.742188 C 226.671875 404.855469 228.574219 408.980469 230.554688 413.054688 C 229.984375 415.207031 229.476563 417.375 228.972656 419.535156 C 238.9375 419.015625 248.898438 418.5 258.914063 417.976563 M 225.429688 371.007813 C 220.804688 370.945313 216.25 370.898438 211.691406 370.867188 C 211.691406 366.65625 211.667969 362.453125 211.640625 358.253906 C 211.605469 354.066406 211.640625 349.855469 211.640625 345.65625 C 216.140625 345.8125 220.644531 345.992188 225.144531 346.152344 C 226.835938 347.796875 228.523438 349.449219 230.269531 351.046875 C 230.269531 356.234375 230.269531 361.429688 230.316406 366.617188 C 228.691406 368.089844 227.058594 369.542969 225.429688 371.007813 "/>
<path style=" stroke:none;fill-rule:nonzero;fill:rgb(94.351196%,27.764893%,11.294556%);fill-opacity:1;" d="M 285.78125 445.582031 L 287.226563 441.417969 L 265.996094 441.417969 L 266.953125 445.582031 L 257.796875 494.800781 L 255.605469 498.914063 L 271.9375 498.914063 L 270.785156 494.800781 L 271.9375 486.882813 L 281.015625 486.882813 L 282.179688 494.800781 L 281.128906 498.914063 L 297.242188 498.914063 L 295.179688 494.800781 Z M 273.851563 475.910156 L 276.476563 458.261719 L 279.097656 475.910156 Z M 273.851563 475.910156 "/>
<path style=" stroke:none;fill-rule:nonzero;fill:rgb(94.351196%,27.764893%,11.294556%);fill-opacity:1;" d="M 449.011719 441.40625 L 433.261719 441.40625 L 435.078125 445.539063 L 435.101563 477.929688 L 419.785156 441.417969 L 406.375 441.417969 L 407.496094 445.441406 L 407.488281 494.800781 L 405.902344 498.921875 L 421.648438 498.921875 L 419.832031 494.800781 L 419.804688 463.25 L 435.132813 498.914063 L 448.539063 498.914063 L 447.410156 494.902344 L 447.421875 445.539063 Z M 449.011719 441.40625 "/>
<path style=" stroke:none;fill-rule:nonzero;fill:rgb(94.351196%,27.764893%,11.294556%);fill-opacity:1;" d="M 359.683594 441.417969 L 344.199219 441.417969 L 345.726563 445.53125 L 345.726563 494.800781 L 344.199219 498.914063 L 359.683594 498.914063 L 358.140625 494.800781 L 358.140625 445.53125 Z M 359.683594 441.417969 "/>
<path style=" stroke:none;fill-rule:nonzero;fill:rgb(94.351196%,27.764893%,11.294556%);fill-opacity:1;" d="M 373.929688 441.417969 L 365.515625 450.1875 L 365.46875 490.246094 L 373.507813 498.996094 L 392.078125 498.996094 L 401.011719 490.246094 L 401.011719 450.003906 L 392.433594 441.417969 Z M 388.910156 485.140625 L 385.671875 487.9375 L 380.722656 487.9375 L 377.90625 485.160156 L 377.921875 454.960938 L 380.566406 452.289063 L 386.234375 452.289063 L 388.910156 454.960938 Z M 388.910156 485.140625 "/>
<path style=" stroke:none;fill-rule:nonzero;fill:rgb(94.351196%,27.764893%,11.294556%);fill-opacity:1;" d="M 251.972656 441.40625 L 236.226563 441.40625 L 238.035156 445.539063 L 238.070313 477.929688 L 222.75 441.417969 L 209.335938 441.417969 L 210.464844 445.441406 L 210.453125 494.800781 L 208.863281 498.921875 L 224.617188 498.921875 L 222.800781 494.800781 L 222.773438 463.25 L 238.089844 498.914063 L 251.503906 498.914063 L 250.378906 494.902344 L 250.390625 445.539063 Z M 251.972656 441.40625 "/>
<path style=" stroke:none;fill-rule:nonzero;fill:rgb(94.351196%,27.764893%,11.294556%);fill-opacity:1;" d="M 296.378906 441.417969 L 293.890625 453.933594 L 301.285156 451.957031 L 310.777344 451.933594 L 310.777344 494.800781 L 309.253906 498.914063 L 324.738281 498.914063 L 323.199219 494.800781 L 323.199219 451.933594 L 332.691406 451.957031 L 340.089844 453.933594 L 337.59375 441.417969 Z M 296.378906 441.417969 "/>
<path style=" stroke:none;fill-rule:nonzero;fill:rgb(94.351196%,27.764893%,11.294556%);fill-opacity:1;" d="M 461.167969 453.234375 C 510.902344 457.46875 560.644531 463.902344 610.371094 472.40625 L 610.371094 467.269531 C 560.644531 456.488281 510.902344 448.402344 461.167969 443.148438 Z M 461.167969 453.234375 "/>
<path style=" stroke:none;fill-rule:nonzero;fill:rgb(94.351196%,27.764893%,11.294556%);fill-opacity:1;" d="M 47.503906 472.40625 C 97.429688 463.152344 147.339844 456.550781 197.253906 452.441406 L 197.253906 442.480469 C 147.339844 447.636719 97.429688 455.863281 47.503906 467.269531 Z M 47.503906 472.40625 "/>
<path style=" stroke:none;fill-rule:nonzero;fill:rgb(94.351196%,27.764893%,11.294556%);fill-opacity:1;" d="M 316.425781 269.214844 L 316.425781 263.433594 C 315.832031 262.753906 315.246094 262.074219 314.660156 261.402344 C 312.488281 263.015625 310.324219 264.652344 308.148438 266.328125 L 308.148438 272.417969 C 310.210938 272.09375 312.273438 271.8125 314.351563 271.539063 C 315.046875 270.761719 315.730469 269.996094 316.425781 269.214844 "/>
<path style=" stroke:none;fill-rule:nonzero;fill:rgb(94.351196%,27.764893%,11.294556%);fill-opacity:1;" d="M 278.4375 299.664063 C 295.269531 295.355469 312.105469 293.253906 328.945313 293.285156 C 345.769531 293.253906 362.605469 295.355469 379.441406 299.664063 C 380.527344 247.515625 396.417969 214.535156 422.792969 195.128906 C 403.621094 193.890625 391.050781 200.734375 383.039063 213.625 L 391.226563 219.761719 C 370.78125 251.339844 348.292969 215.066406 378.898438 187.957031 C 369.242188 187.328125 362.921875 190.769531 358.886719 197.261719 L 363.011719 200.203125 C 347.8125 224.699219 331.867188 217.957031 331.910156 206.695313 L 331.929688 197.898438 C 337.894531 196.890625 343.136719 191.753906 342.144531 185.769531 C 341.339844 177.066406 340.855469 148.953125 335.3125 144.371094 L 335.3125 182.191406 C 335.3125 185.476563 332.621094 188.164063 329.339844 188.164063 C 329.207031 188.164063 329.074219 188.160156 328.945313 188.148438 C 328.804688 188.160156 328.667969 188.164063 328.539063 188.164063 C 325.253906 188.164063 322.5625 185.476563 322.5625 182.191406 L 322.5625 144.371094 C 317.03125 148.953125 316.53125 177.066406 315.730469 185.769531 C 314.738281 191.753906 319.976563 196.890625 325.949219 197.898438 L 325.960938 206.695313 C 326.007813 217.957031 310.058594 224.699219 294.867188 200.203125 L 298.988281 197.261719 C 294.957031 190.769531 288.632813 187.328125 278.992188 187.957031 C 309.582031 215.066406 287.097656 251.339844 266.652344 219.761719 L 274.835938 213.625 C 266.824219 200.734375 254.253906 193.890625 235.082031 195.128906 C 261.457031 214.535156 277.351563 247.515625 278.4375 299.664063 M 369.585938 257.636719 L 370.671875 254.292969 L 371.753906 257.636719 L 375.269531 257.636719 L 372.421875 259.691406 L 373.519531 263.042969 L 370.671875 260.96875 L 367.820313 263.042969 L 368.925781 259.691406 L 366.070313 257.636719 Z M 327.953125 235.148438 C 331.242188 235.136719 334.542969 235.210938 337.847656 235.394531 C 339.730469 240.132813 341.613281 244.894531 343.503906 249.691406 C 345.382813 254.492188 347.273438 259.339844 349.164063 264.199219 C 349.164063 260.160156 349.152344 256.125 349.152344 252.097656 C 349.152344 248.0625 349.136719 244.027344 349.136719 239.988281 C 348.695313 238.867188 348.25 237.75 347.808594 236.644531 C 351.675781 237.417969 355.566406 238.382813 359.445313 239.527344 C 359.035156 240.433594 358.648438 241.332031 358.257813 242.238281 L 358.257813 278.75 C 358.539063 279.804688 358.808594 280.855469 359.09375 281.914063 C 355.789063 281.128906 352.488281 280.449219 349.179688 279.886719 C 347.296875 275.152344 345.40625 270.433594 343.523438 265.75 C 341.640625 261.070313 339.75 256.441406 337.867188 251.820313 L 337.867188 263.6875 C 337.867188 267.636719 337.886719 271.589844 337.886719 275.542969 C 338.335938 276.601563 338.78125 277.667969 339.238281 278.742188 C 335.355469 278.527344 331.476563 278.414063 327.59375 278.445313 C 327.984375 277.398438 328.375 276.355469 328.773438 275.320313 L 328.773438 256.734375 C 328.773438 250.546875 328.773438 244.351563 328.78125 238.148438 C 328.484375 237.148438 328.214844 236.15625 327.953125 235.148438 M 298.320313 239.691406 C 298.773438 239.566406 299.230469 239.460938 299.683594 239.34375 C 302.511719 238.644531 305.328125 238.03125 308.148438 237.464844 C 311.824219 236.816406 315.5 236.28125 319.179688 235.851563 C 321.222656 237.609375 323.269531 239.421875 325.328125 241.253906 L 325.328125 253.09375 C 324.117188 254.207031 322.917969 255.324219 321.707031 256.449219 C 322.917969 257.394531 324.117188 258.359375 325.328125 259.328125 L 325.328125 272.980469 C 323.269531 274.96875 321.222656 277.003906 319.179688 279.042969 C 315.5 279.398438 311.824219 279.832031 308.148438 280.367188 C 305.328125 280.828125 302.511719 281.347656 299.683594 281.90625 C 299.230469 282.011719 298.773438 282.101563 298.320313 282.195313 C 298.519531 281.15625 298.734375 280.117188 298.945313 279.085938 L 298.945313 260.769531 C 298.945313 254.671875 298.945313 248.566406 298.957031 242.457031 C 298.746094 241.53125 298.527344 240.613281 298.320313 239.691406 M 286.625 257.636719 L 287.71875 254.292969 L 288.800781 257.636719 L 292.316406 257.636719 L 289.460938 259.691406 L 290.558594 263.042969 L 287.71875 260.96875 L 284.875 263.042969 L 285.957031 259.691406 L 283.113281 257.636719 Z M 286.625 257.636719 "/>
<path style=" stroke:none;fill-rule:nonzero;fill:rgb(94.351196%,27.764893%,11.294556%);fill-opacity:1;" d="M 379.472656 314.871094 L 379.472656 304.492188 C 362.433594 300.070313 345.6875 297.871094 328.945313 297.882813 C 312.1875 297.871094 295.4375 300.070313 278.402344 304.492188 L 278.402344 314.871094 C 295.976563 310.804688 312.726563 308.824219 328.945313 308.765625 C 345.152344 308.824219 361.894531 310.804688 379.472656 314.871094 "/>
<path style=" stroke:none;fill-rule:nonzero;fill:rgb(94.351196%,27.764893%,11.294556%);fill-opacity:1;" d="M 316.425781 246.554688 C 315.730469 245.941406 315.046875 245.320313 314.351563 244.714844 C 312.273438 245.007813 310.210938 245.335938 308.148438 245.710938 L 308.148438 257.363281 C 310.898438 255.261719 313.664063 253.207031 316.425781 251.199219 L 316.425781 246.554688 "/>
<path style=" stroke:none;fill-rule:nonzero;fill:rgb(13.729858%,12.159729%,12.548828%);fill-opacity:1;" d="M 614.589844 315.257813 C 615.980469 315.257813 616.675781 314.804688 616.675781 313.894531 C 616.675781 312.984375 616.003906 312.527344 614.664063 312.527344 L 613.261719 312.527344 L 613.261719 315.257813 Z M 614.722656 311.351563 C 615.78125 311.351563 616.59375 311.574219 617.15625 312.015625 C 617.71875 312.457031 618 313.085938 618 313.894531 C 618 314.488281 617.824219 314.992188 617.472656 315.410156 C 617.117188 315.828125 616.59375 316.113281 615.898438 316.261719 L 617.867188 318.730469 C 617.917969 318.792969 617.933594 318.855469 617.90625 318.917969 C 617.882813 318.980469 617.828125 319.011719 617.753906 319.011719 L 616.808594 319.011719 C 616.691406 319.011719 616.585938 318.949219 616.484375 318.824219 L 614.589844 316.433594 L 613.261719 316.433594 L 613.261719 318.730469 C 613.261719 318.917969 613.164063 319.011719 612.976563 319.011719 L 612.21875 319.011719 C 612.027344 319.011719 611.933594 318.917969 611.933594 318.730469 L 611.933594 311.617188 C 611.933594 311.441406 612.027344 311.351563 612.21875 311.351563 Z M 610.140625 319.402344 C 611.210938 320.519531 612.691406 321.082031 614.589844 321.082031 C 616.484375 321.082031 617.972656 320.519531 619.042969 319.402344 C 620.117188 318.28125 620.65625 316.894531 620.65625 315.238281 C 620.65625 313.582031 620.117188 312.191406 619.042969 311.066406 C 617.972656 309.941406 616.484375 309.378906 614.589844 309.378906 C 612.691406 309.378906 611.210938 309.941406 610.140625 311.066406 C 609.070313 312.191406 608.539063 313.589844 608.539063 315.257813 C 608.539063 316.902344 609.070313 318.28125 610.140625 319.402344 M 609.382813 310.355469 C 610.640625 309.035156 612.367188 308.375 614.570313 308.375 C 616.792969 308.375 618.539063 309.035156 619.804688 310.355469 C 621.066406 311.675781 621.699219 313.304688 621.699219 315.238281 C 621.699219 317.175781 621.066406 318.800781 619.804688 320.113281 C 618.539063 321.429688 616.792969 322.085938 614.570313 322.085938 C 612.367188 322.085938 610.640625 321.425781 609.382813 320.105469 C 608.121094 318.78125 607.492188 317.160156 607.492188 315.238281 C 607.492188 313.304688 608.121094 311.675781 609.382813 310.355469 "/>
</g>
</svg>
